<svg width="22" height="22" viewBox="0 0 22 22" fill="none" xmlns="http://www.w3.org/2000/svg">
<path d="M13.7006 20.2227L13.7115 20.2303C14.6559 20.8317 15.7771 21.0928 16.89 20.9706C18.0028 20.8484 19.0406 20.3501 19.832 19.5581L20.5195 18.8706C20.6718 18.7183 20.7927 18.5375 20.8751 18.3385C20.9576 18.1395 21 17.9262 21 17.7108C21 17.4954 20.9576 17.2821 20.8751 17.0832C20.7927 16.8842 20.6718 16.7034 20.5195 16.5511L17.6199 13.6534C17.4676 13.5011 17.2869 13.3802 17.0879 13.2977C16.8889 13.2153 16.6756 13.1728 16.4603 13.1728C16.2449 13.1728 16.0316 13.2153 15.8326 13.2977C15.6337 13.3802 15.4529 13.5011 15.3007 13.6534C14.9932 13.9608 14.5763 14.1335 14.1416 14.1335C13.7069 14.1335 13.29 13.9608 12.9825 13.6534L8.34625 9.01558C8.03891 8.70811 7.86626 8.29115 7.86626 7.85639C7.86626 7.42163 8.03891 7.00467 8.34625 6.69721C8.4986 6.54494 8.61945 6.36415 8.70191 6.16516C8.78436 5.96616 8.8268 5.75287 8.8268 5.53747C8.8268 5.32207 8.78436 5.10878 8.70191 4.90979C8.61945 4.7108 8.4986 4.53 8.34625 4.37774L5.44777 1.48005C5.14033 1.17267 4.72342 1 4.2887 1C3.85399 1 3.43707 1.17267 3.12964 1.48005L2.44108 2.16758C1.64934 2.95915 1.15132 3.99717 1.02931 5.11012C0.907291 6.22308 1.16859 7.34436 1.77001 8.28869L1.77657 8.29962C4.95286 12.9995 9.00058 17.0469 13.7006 20.2227V20.2227Z" stroke="#4E4B66" stroke-width="2" stroke-linecap="round" stroke-linejoin="round"/>
</svg>
